<?xml version="1.0" standalone="no"?>
<!DOCTYPE svg PUBLIC "-//W3C//DTD SVG 20010904//EN"
 "http://www.w3.org/TR/2001/REC-SVG-20010904/DTD/svg10.dtd">
<svg version="1.0" xmlns="http://www.w3.org/2000/svg"
 width="765.000000pt" height="765.000000pt" viewBox="0 0 765.000000 765.000000"
 preserveAspectRatio="xMidYMid meet">
<metadata>
Created by potrace 1.11, written by Peter Selinger 2001-2013
</metadata>
<g transform="translate(0.000000,765.000000) scale(0.100000,-0.100000)"
fill="#000000" stroke="none">
<path d="M3916 7448 c-32 -18 -92 -63 -132 -101 -221 -206 -356 -572 -395
-1069 -5 -73 -13 -153 -16 -177 -3 -24 -1 -46 4 -50 5 -3 14 -71 21 -151 14
-172 51 -400 90 -557 l29 -112 -81 -80 c-45 -45 -87 -81 -93 -81 -13 0 -65
-60 -63 -73 1 -4 -54 -65 -121 -135 -227 -237 -449 -536 -554 -747 -27 -55
-57 -106 -66 -112 -19 -14 -43 -73 -30 -73 5 0 -6 -46 -24 -102 -88 -272 -102
-516 -46 -778 10 -47 18 -94 18 -105 -1 -51 4 -75 17 -75 7 0 21 -21 31 -47
114 -303 354 -596 630 -770 70 -44 206 -107 293 -135 40 -13 70 -27 66 -30 -3
-4 7 -10 22 -13 16 -4 46 -13 66 -21 56 -21 464 -12 531 11 59 21 80 15 71
-21 -4 -14 -3 -29 2 -33 10 -6 84 -309 129 -526 60 -285 36 -567 -60 -706 -94
-135 -290 -240 -477 -256 -136 -11 -257 27 -335 104 l-37 38 72 7 c133 11 248
91 307 212 38 77 46 202 20 292 -49 172 -182 294 -346 319 -153 23 -326 -79
-411 -240 -157 -299 -46 -625 268 -787 132 -68 213 -89 375 -95 152 -6 253 9
366 54 195 78 356 245 420 437 26 76 27 92 28 261 0 196 -1 200 -92 620 -25
116 -47 239 -49 274 -1 35 -7 67 -13 70 -5 4 -11 19 -13 34 -3 25 2 30 72 60
160 70 320 199 405 328 96 143 162 327 180 492 3 37 10 67 13 67 4 0 7 18 7
40 0 22 -3 40 -6 40 -3 0 -9 35 -13 77 -28 309 -174 599 -382 761 -82 64 -236
146 -299 160 -22 5 -105 7 -185 4 -156 -4 -200 4 -200 37 0 11 -4 21 -8 23 -5
2 -38 147 -74 323 l-66 319 79 81 c43 44 106 116 139 160 34 44 67 85 73 90
23 18 67 82 61 87 -3 4 15 42 40 85 128 222 240 565 272 836 3 31 10 57 14 57
4 0 10 18 12 40 2 22 1 40 -3 40 -3 0 -9 91 -12 203 -7 292 -44 479 -141 718
-53 132 -153 302 -221 374 -62 67 -90 71 -179 23z m237 -632 c40 -16 82 -64
96 -108 23 -73 32 -195 21 -285 -16 -133 -62 -293 -83 -293 -16 0 -48 -73 -35
-81 22 -14 -133 -283 -258 -449 -68 -90 -223 -250 -243 -250 -18 0 -52 127
-71 262 -20 134 -6 422 20 438 5 3 11 33 13 65 12 157 120 441 219 571 90 120
220 173 321 130z m-493 -2333 c13 -55 102 -514 105 -541 3 -19 -4 -27 -41 -42
-114 -49 -264 -176 -349 -295 -123 -173 -196 -404 -183 -586 3 -38 1 -69 -4
-69 -5 0 -4 -9 2 -19 5 -11 10 -29 10 -40 0 -12 4 -21 8 -21 5 0 15 -19 22
-42 61 -205 256 -404 461 -470 83 -27 122 -20 117 20 -2 22 -15 33 -73 62
-128 65 -230 198 -269 352 -16 62 -13 173 5 241 37 137 177 297 325 370 40 19
67 28 72 22 11 -12 92 -420 99 -495 2 -30 8 -57 12 -60 6 -4 157 -747 164
-810 2 -11 -25 -21 -108 -39 -375 -80 -754 29 -1019 295 -150 151 -262 373
-283 560 -37 329 38 621 237 923 34 52 88 121 120 152 32 32 53 60 48 61 -5 2
24 42 65 88 129 147 433 437 445 425 2 -2 8 -21 12 -42z m525 -1049 c113 -27
202 -79 295 -173 70 -70 94 -103 133 -181 26 -52 49 -108 51 -125 2 -16 11
-57 20 -90 34 -123 -8 -361 -92 -513 -35 -64 -165 -191 -234 -227 -31 -16 -59
-27 -61 -25 -9 11 -150 728 -153 778 -1 29 -7 59 -13 66 -8 10 -111 486 -111
513 0 6 103 -8 165 -23z"/>
</g>
</svg>
